G75*
G70*
%OFA0B0*%
%FSLAX24Y24*%
%IPPOS*%
%LPD*%
%AMOC8*
5,1,8,0,0,1.08239X$1,22.5*
%
%ADD10C,0.0000*%
%ADD11C,0.0480*%
%ADD12OC8,0.0480*%
%ADD13R,0.0512X0.0630*%
%ADD14R,0.0630X0.0512*%
%ADD15R,0.0945X0.0945*%
%ADD16C,0.0860*%
%ADD17R,0.0236X0.0866*%
%ADD18R,0.0984X0.0472*%
%ADD19C,0.0160*%
%ADD20C,0.0436*%
D10*
X002181Y001181D02*
X013181Y001181D01*
X013241Y001183D01*
X013302Y001188D01*
X013361Y001197D01*
X013420Y001210D01*
X013479Y001226D01*
X013536Y001246D01*
X013591Y001269D01*
X013646Y001296D01*
X013698Y001325D01*
X013749Y001358D01*
X013798Y001394D01*
X013844Y001432D01*
X013888Y001474D01*
X013930Y001518D01*
X013968Y001564D01*
X014004Y001613D01*
X014037Y001664D01*
X014066Y001716D01*
X014093Y001771D01*
X014116Y001826D01*
X014136Y001883D01*
X014152Y001942D01*
X014165Y002001D01*
X014174Y002060D01*
X014179Y002121D01*
X014181Y002181D01*
X014181Y011181D01*
X014179Y011241D01*
X014174Y011302D01*
X014165Y011361D01*
X014152Y011420D01*
X014136Y011479D01*
X014116Y011536D01*
X014093Y011591D01*
X014066Y011646D01*
X014037Y011698D01*
X014004Y011749D01*
X013968Y011798D01*
X013930Y011844D01*
X013888Y011888D01*
X013844Y011930D01*
X013798Y011968D01*
X013749Y012004D01*
X013698Y012037D01*
X013646Y012066D01*
X013591Y012093D01*
X013536Y012116D01*
X013479Y012136D01*
X013420Y012152D01*
X013361Y012165D01*
X013302Y012174D01*
X013241Y012179D01*
X013181Y012181D01*
X002181Y012181D01*
X002182Y012181D02*
X002117Y012175D01*
X002054Y012166D01*
X001991Y012152D01*
X001929Y012135D01*
X001868Y012114D01*
X001809Y012090D01*
X001751Y012062D01*
X001695Y012030D01*
X001641Y011996D01*
X001589Y011958D01*
X001540Y011917D01*
X001493Y011873D01*
X001449Y011826D01*
X001408Y011777D01*
X001369Y011725D01*
X001334Y011671D01*
X001303Y011615D01*
X001274Y011557D01*
X001250Y011498D01*
X001229Y011437D01*
X001211Y011375D01*
X001198Y011313D01*
X001188Y011249D01*
X001182Y011185D01*
X001180Y011121D01*
X001182Y011057D01*
X001181Y011056D02*
X001181Y002181D01*
X001183Y002121D01*
X001188Y002060D01*
X001197Y002001D01*
X001210Y001942D01*
X001226Y001883D01*
X001246Y001826D01*
X001269Y001771D01*
X001296Y001716D01*
X001325Y001664D01*
X001358Y001613D01*
X001394Y001564D01*
X001432Y001518D01*
X001474Y001474D01*
X001518Y001432D01*
X001564Y001394D01*
X001613Y001358D01*
X001664Y001325D01*
X001716Y001296D01*
X001771Y001269D01*
X001826Y001246D01*
X001883Y001226D01*
X001942Y001210D01*
X002001Y001197D01*
X002060Y001188D01*
X002121Y001183D01*
X002181Y001181D01*
X004436Y002181D02*
X004438Y002222D01*
X004444Y002263D01*
X004454Y002303D01*
X004467Y002342D01*
X004484Y002379D01*
X004505Y002415D01*
X004529Y002449D01*
X004556Y002480D01*
X004585Y002508D01*
X004618Y002534D01*
X004652Y002556D01*
X004689Y002575D01*
X004727Y002590D01*
X004767Y002602D01*
X004807Y002610D01*
X004848Y002614D01*
X004890Y002614D01*
X004931Y002610D01*
X004971Y002602D01*
X005011Y002590D01*
X005049Y002575D01*
X005085Y002556D01*
X005120Y002534D01*
X005153Y002508D01*
X005182Y002480D01*
X005209Y002449D01*
X005233Y002415D01*
X005254Y002379D01*
X005271Y002342D01*
X005284Y002303D01*
X005294Y002263D01*
X005300Y002222D01*
X005302Y002181D01*
X005300Y002140D01*
X005294Y002099D01*
X005284Y002059D01*
X005271Y002020D01*
X005254Y001983D01*
X005233Y001947D01*
X005209Y001913D01*
X005182Y001882D01*
X005153Y001854D01*
X005120Y001828D01*
X005086Y001806D01*
X005049Y001787D01*
X005011Y001772D01*
X004971Y001760D01*
X004931Y001752D01*
X004890Y001748D01*
X004848Y001748D01*
X004807Y001752D01*
X004767Y001760D01*
X004727Y001772D01*
X004689Y001787D01*
X004653Y001806D01*
X004618Y001828D01*
X004585Y001854D01*
X004556Y001882D01*
X004529Y001913D01*
X004505Y001947D01*
X004484Y001983D01*
X004467Y002020D01*
X004454Y002059D01*
X004444Y002099D01*
X004438Y002140D01*
X004436Y002181D01*
X009436Y007181D02*
X009438Y007222D01*
X009444Y007263D01*
X009454Y007303D01*
X009467Y007342D01*
X009484Y007379D01*
X009505Y007415D01*
X009529Y007449D01*
X009556Y007480D01*
X009585Y007508D01*
X009618Y007534D01*
X009652Y007556D01*
X009689Y007575D01*
X009727Y007590D01*
X009767Y007602D01*
X009807Y007610D01*
X009848Y007614D01*
X009890Y007614D01*
X009931Y007610D01*
X009971Y007602D01*
X010011Y007590D01*
X010049Y007575D01*
X010085Y007556D01*
X010120Y007534D01*
X010153Y007508D01*
X010182Y007480D01*
X010209Y007449D01*
X010233Y007415D01*
X010254Y007379D01*
X010271Y007342D01*
X010284Y007303D01*
X010294Y007263D01*
X010300Y007222D01*
X010302Y007181D01*
X010300Y007140D01*
X010294Y007099D01*
X010284Y007059D01*
X010271Y007020D01*
X010254Y006983D01*
X010233Y006947D01*
X010209Y006913D01*
X010182Y006882D01*
X010153Y006854D01*
X010120Y006828D01*
X010086Y006806D01*
X010049Y006787D01*
X010011Y006772D01*
X009971Y006760D01*
X009931Y006752D01*
X009890Y006748D01*
X009848Y006748D01*
X009807Y006752D01*
X009767Y006760D01*
X009727Y006772D01*
X009689Y006787D01*
X009653Y006806D01*
X009618Y006828D01*
X009585Y006854D01*
X009556Y006882D01*
X009529Y006913D01*
X009505Y006947D01*
X009484Y006983D01*
X009467Y007020D01*
X009454Y007059D01*
X009444Y007099D01*
X009438Y007140D01*
X009436Y007181D01*
X013004Y007784D02*
X013006Y007810D01*
X013012Y007836D01*
X013022Y007861D01*
X013035Y007884D01*
X013051Y007904D01*
X013071Y007922D01*
X013093Y007937D01*
X013116Y007949D01*
X013142Y007957D01*
X013168Y007961D01*
X013194Y007961D01*
X013220Y007957D01*
X013246Y007949D01*
X013270Y007937D01*
X013291Y007922D01*
X013311Y007904D01*
X013327Y007884D01*
X013340Y007861D01*
X013350Y007836D01*
X013356Y007810D01*
X013358Y007784D01*
X013356Y007758D01*
X013350Y007732D01*
X013340Y007707D01*
X013327Y007684D01*
X013311Y007664D01*
X013291Y007646D01*
X013269Y007631D01*
X013246Y007619D01*
X013220Y007611D01*
X013194Y007607D01*
X013168Y007607D01*
X013142Y007611D01*
X013116Y007619D01*
X013092Y007631D01*
X013071Y007646D01*
X013051Y007664D01*
X013035Y007684D01*
X013022Y007707D01*
X013012Y007732D01*
X013006Y007758D01*
X013004Y007784D01*
X013004Y010579D02*
X013006Y010605D01*
X013012Y010631D01*
X013022Y010656D01*
X013035Y010679D01*
X013051Y010699D01*
X013071Y010717D01*
X013093Y010732D01*
X013116Y010744D01*
X013142Y010752D01*
X013168Y010756D01*
X013194Y010756D01*
X013220Y010752D01*
X013246Y010744D01*
X013270Y010732D01*
X013291Y010717D01*
X013311Y010699D01*
X013327Y010679D01*
X013340Y010656D01*
X013350Y010631D01*
X013356Y010605D01*
X013358Y010579D01*
X013356Y010553D01*
X013350Y010527D01*
X013340Y010502D01*
X013327Y010479D01*
X013311Y010459D01*
X013291Y010441D01*
X013269Y010426D01*
X013246Y010414D01*
X013220Y010406D01*
X013194Y010402D01*
X013168Y010402D01*
X013142Y010406D01*
X013116Y010414D01*
X013092Y010426D01*
X013071Y010441D01*
X013051Y010459D01*
X013035Y010479D01*
X013022Y010502D01*
X013012Y010527D01*
X013006Y010553D01*
X013004Y010579D01*
D11*
X002421Y006681D02*
X001941Y006681D01*
X001941Y004681D02*
X002421Y004681D01*
D12*
X003681Y004681D03*
X004181Y005431D03*
X004681Y004681D03*
D13*
X003680Y003431D03*
X002932Y003431D03*
X002932Y002431D03*
X003680Y002431D03*
X006288Y002431D03*
X007075Y002431D03*
X008057Y002431D03*
X008805Y002431D03*
X007055Y003431D03*
X006307Y003431D03*
X008932Y005806D03*
X009680Y005806D03*
X007825Y007806D03*
X007038Y007806D03*
X007057Y008806D03*
X007805Y008806D03*
X006180Y009306D03*
X005432Y009306D03*
X006057Y010431D03*
X006805Y010431D03*
X004200Y010931D03*
X003413Y010931D03*
X003807Y006681D03*
X004555Y006681D03*
D14*
X002181Y007538D03*
X002181Y008325D03*
X008806Y004555D03*
X009681Y004575D03*
X009681Y003788D03*
X008806Y003807D03*
X009681Y002950D03*
X009681Y002163D03*
X010681Y003413D03*
X010681Y004200D03*
D15*
X005416Y007931D03*
X004291Y009556D03*
X003447Y007931D03*
X002322Y009556D03*
D16*
X012181Y006181D03*
X012181Y005181D03*
X012181Y004181D03*
X012181Y003181D03*
X012181Y002181D03*
D17*
X007931Y004658D03*
X007431Y004658D03*
X006931Y004658D03*
X006431Y004658D03*
X006431Y006705D03*
X006931Y006705D03*
X007431Y006705D03*
X007931Y006705D03*
D18*
X012099Y008197D03*
X012099Y009181D03*
X012099Y010166D03*
D19*
X001540Y001855D02*
X001672Y001672D01*
X001855Y001540D01*
X002069Y001470D01*
X002181Y001461D01*
X002237Y001461D01*
X013181Y001461D01*
X013294Y001470D01*
X013508Y001540D01*
X013691Y001672D01*
X013823Y001855D01*
X013893Y002069D01*
X013901Y002181D01*
X013901Y002237D01*
X013901Y011181D01*
X013893Y011294D01*
X013823Y011508D01*
X013691Y011691D01*
X013508Y011823D01*
X013294Y011893D01*
X013181Y011901D01*
X013126Y011901D01*
X002194Y011901D01*
X002076Y011885D01*
X001847Y011796D01*
X001658Y011640D01*
X001525Y011433D01*
X001463Y011196D01*
X001461Y011099D01*
X001461Y011064D01*
X001464Y011017D01*
X001461Y011009D01*
X001461Y002181D01*
X001470Y002069D01*
X001540Y001855D01*
X001517Y001925D02*
X002528Y001925D01*
X002541Y001913D02*
X002629Y001876D01*
X003236Y001876D01*
X003324Y001913D01*
X003375Y001964D01*
X003403Y001956D01*
X003632Y001956D01*
X003632Y002383D01*
X003728Y002383D01*
X003728Y001956D01*
X003957Y001956D01*
X003998Y001967D01*
X004035Y001988D01*
X004064Y002018D01*
X004085Y002055D01*
X004096Y002095D01*
X004096Y002383D01*
X003729Y002383D01*
X003729Y002479D01*
X004096Y002479D01*
X004096Y002767D01*
X004085Y002808D01*
X004064Y002845D01*
X004035Y002874D01*
X004011Y002888D01*
X004072Y002913D01*
X004140Y002980D01*
X004176Y003069D01*
X004176Y003794D01*
X004140Y003882D01*
X004072Y003950D01*
X004001Y003979D01*
X004001Y004323D01*
X004161Y004483D01*
X004161Y004880D01*
X004090Y004951D01*
X004273Y004951D01*
X004201Y004880D01*
X004201Y004483D01*
X004483Y004201D01*
X004880Y004201D01*
X005161Y004483D01*
X005161Y004709D01*
X005363Y004910D01*
X005453Y005000D01*
X005501Y005118D01*
X005501Y005992D01*
X005501Y006119D01*
X005453Y006237D01*
X005051Y006638D01*
X005051Y006725D01*
X005546Y007219D01*
X005936Y007219D01*
X006024Y007256D01*
X006092Y007323D01*
X006111Y007371D01*
X006111Y007276D01*
X006110Y007274D01*
X006073Y007186D01*
X006073Y006224D01*
X006110Y006136D01*
X006177Y006069D01*
X006266Y006032D01*
X006597Y006032D01*
X006681Y006067D01*
X006766Y006032D01*
X006977Y006032D01*
X006973Y006023D01*
X006973Y005840D01*
X007043Y005672D01*
X007172Y005543D01*
X007340Y005473D01*
X007523Y005473D01*
X007691Y005543D01*
X007820Y005672D01*
X007833Y005703D01*
X008000Y005535D01*
X008118Y005486D01*
X008245Y005486D01*
X008436Y005486D01*
X008436Y005444D01*
X008473Y005355D01*
X008541Y005288D01*
X008629Y005251D01*
X009236Y005251D01*
X009306Y005281D01*
X009361Y005258D01*
X009361Y005071D01*
X009319Y005071D01*
X009230Y005034D01*
X009163Y004967D01*
X009163Y004966D01*
X009142Y004971D01*
X008854Y004971D01*
X008854Y004604D01*
X008758Y004604D01*
X008758Y004971D01*
X008470Y004971D01*
X008430Y004960D01*
X008393Y004939D01*
X008363Y004910D01*
X008342Y004873D01*
X008331Y004832D01*
X008331Y004603D01*
X008758Y004603D01*
X008758Y004507D01*
X008331Y004507D01*
X008331Y004278D01*
X008339Y004250D01*
X008288Y004199D01*
X008258Y004127D01*
X008204Y004182D01*
X008209Y004204D01*
X008209Y004658D01*
X008209Y005112D01*
X008199Y005153D01*
X008178Y005189D01*
X008148Y005219D01*
X008111Y005240D01*
X008071Y005251D01*
X007932Y005251D01*
X007932Y004658D01*
X008209Y004658D01*
X007932Y004658D01*
X007932Y004658D01*
X007931Y004658D01*
X007931Y005251D01*
X007792Y005251D01*
X007752Y005240D01*
X007744Y005236D01*
X007685Y005294D01*
X007597Y005331D01*
X007266Y005331D01*
X007181Y005296D01*
X007097Y005331D01*
X006886Y005331D01*
X006889Y005340D01*
X006889Y005523D01*
X006820Y005691D01*
X006691Y005820D01*
X006523Y005889D01*
X006340Y005889D01*
X006172Y005820D01*
X006043Y005691D01*
X005973Y005523D01*
X005973Y005340D01*
X006043Y005172D01*
X006074Y005141D01*
X006073Y005139D01*
X006073Y004177D01*
X006081Y004159D01*
X006035Y004113D01*
X005986Y003995D01*
X005986Y003979D01*
X005916Y003950D01*
X005848Y003882D01*
X005811Y003794D01*
X005811Y003069D01*
X005848Y002980D01*
X005887Y002941D01*
X005828Y002882D01*
X005792Y002794D01*
X005792Y002069D01*
X005828Y001980D01*
X005896Y001913D01*
X005984Y001876D01*
X006591Y001876D01*
X006680Y001913D01*
X006681Y001915D01*
X006683Y001913D01*
X006771Y001876D01*
X007379Y001876D01*
X007467Y001913D01*
X007534Y001980D01*
X007566Y002057D01*
X007598Y001980D01*
X007666Y001913D01*
X007754Y001876D01*
X008361Y001876D01*
X008431Y001906D01*
X008502Y001876D01*
X008930Y001876D01*
X009011Y001843D01*
X009133Y001843D01*
X009163Y001771D01*
X009230Y001703D01*
X009319Y001667D01*
X010044Y001667D01*
X010132Y001703D01*
X010200Y001771D01*
X010236Y001859D01*
X010236Y002466D01*
X010200Y002555D01*
X010137Y002618D01*
X010145Y002632D01*
X010156Y002673D01*
X010156Y002902D01*
X009730Y002902D01*
X009730Y002998D01*
X010156Y002998D01*
X010156Y003037D01*
X010163Y003021D01*
X010230Y002953D01*
X010319Y002917D01*
X010868Y002917D01*
X010875Y002910D01*
X010993Y002861D01*
X011120Y002861D01*
X011589Y002861D01*
X011613Y002802D01*
X011791Y002625D01*
X011731Y002566D01*
X011677Y002491D01*
X011635Y002408D01*
X011606Y002320D01*
X011591Y002228D01*
X011591Y002190D01*
X012173Y002190D01*
X012173Y002173D01*
X012190Y002173D01*
X012190Y002190D01*
X012771Y002190D01*
X012771Y002228D01*
X012757Y002320D01*
X012728Y002408D01*
X012686Y002491D01*
X012631Y002566D01*
X012572Y002625D01*
X012749Y002802D01*
X012851Y003048D01*
X012851Y003315D01*
X012749Y003561D01*
X012629Y003681D01*
X012749Y003802D01*
X012851Y004048D01*
X012851Y004315D01*
X012749Y004561D01*
X012572Y004738D01*
X012631Y004797D01*
X012686Y004872D01*
X012728Y004955D01*
X012757Y005043D01*
X012771Y005135D01*
X012771Y005173D01*
X012190Y005173D01*
X012190Y005190D01*
X012771Y005190D01*
X012771Y005228D01*
X012757Y005320D01*
X012728Y005408D01*
X012686Y005491D01*
X012631Y005566D01*
X012572Y005625D01*
X012749Y005802D01*
X012851Y006048D01*
X012851Y006315D01*
X012749Y006561D01*
X012561Y006749D01*
X012501Y006774D01*
X012501Y007721D01*
X012639Y007721D01*
X012724Y007756D01*
X012724Y007693D01*
X012794Y007525D01*
X012922Y007396D01*
X013090Y007327D01*
X013272Y007327D01*
X013440Y007396D01*
X013569Y007525D01*
X013639Y007693D01*
X013639Y007875D01*
X013569Y008043D01*
X013440Y008171D01*
X013272Y008241D01*
X013090Y008241D01*
X012922Y008171D01*
X012831Y008080D01*
X012831Y008481D01*
X012794Y008569D01*
X012727Y008637D01*
X012639Y008673D01*
X012501Y008673D01*
X012501Y008705D01*
X012639Y008705D01*
X012727Y008742D01*
X012794Y008809D01*
X012831Y008897D01*
X012831Y009465D01*
X012794Y009554D01*
X012727Y009621D01*
X012639Y009658D01*
X011559Y009658D01*
X011471Y009621D01*
X011403Y009554D01*
X011367Y009465D01*
X011367Y008897D01*
X011403Y008809D01*
X011471Y008742D01*
X011559Y008705D01*
X011861Y008705D01*
X011861Y008673D01*
X011559Y008673D01*
X011471Y008637D01*
X011403Y008569D01*
X011367Y008481D01*
X011367Y007913D01*
X011403Y007825D01*
X011471Y007757D01*
X011559Y007721D01*
X011861Y007721D01*
X011861Y006774D01*
X011802Y006749D01*
X011613Y006561D01*
X011511Y006315D01*
X011511Y006048D01*
X011613Y005802D01*
X011791Y005625D01*
X011731Y005566D01*
X011677Y005491D01*
X011635Y005408D01*
X011606Y005320D01*
X011591Y005228D01*
X011591Y005190D01*
X012173Y005190D01*
X012173Y005173D01*
X011591Y005173D01*
X011591Y005135D01*
X011606Y005043D01*
X011635Y004955D01*
X011677Y004872D01*
X011731Y004797D01*
X011791Y004738D01*
X011613Y004561D01*
X011589Y004501D01*
X011236Y004501D01*
X011236Y004504D01*
X011200Y004592D01*
X011132Y004659D01*
X011044Y004696D01*
X011001Y004696D01*
X011001Y007868D01*
X011001Y007995D01*
X010953Y008113D01*
X009203Y009863D01*
X009113Y009953D01*
X008995Y010001D01*
X007273Y010001D01*
X007301Y010069D01*
X007301Y010111D01*
X010799Y010111D01*
X011000Y009910D01*
X011118Y009861D01*
X011245Y009861D01*
X011375Y009861D01*
X011403Y009793D01*
X011471Y009726D01*
X011559Y009689D01*
X012639Y009689D01*
X012727Y009726D01*
X012794Y009793D01*
X012831Y009882D01*
X012831Y010283D01*
X012922Y010191D01*
X013090Y010122D01*
X013272Y010122D01*
X013440Y010191D01*
X013569Y010320D01*
X013639Y010488D01*
X013639Y010670D01*
X013569Y010838D01*
X013440Y010967D01*
X013272Y011036D01*
X013090Y011036D01*
X012922Y010967D01*
X012794Y010838D01*
X012724Y010670D01*
X012724Y010606D01*
X012639Y010642D01*
X011559Y010642D01*
X011471Y010605D01*
X011403Y010538D01*
X011388Y010501D01*
X011314Y010501D01*
X011113Y010703D01*
X010995Y010751D01*
X010868Y010751D01*
X007301Y010751D01*
X007301Y010794D01*
X007265Y010882D01*
X007197Y010950D01*
X007109Y010986D01*
X006502Y010986D01*
X006431Y010957D01*
X006361Y010986D01*
X005754Y010986D01*
X005666Y010950D01*
X005598Y010882D01*
X005561Y010794D01*
X005561Y010754D01*
X005113Y011203D01*
X004995Y011251D01*
X004868Y011251D01*
X004696Y011251D01*
X004696Y011294D01*
X004659Y011382D01*
X004592Y011450D01*
X004504Y011486D01*
X003896Y011486D01*
X003808Y011450D01*
X003745Y011387D01*
X003730Y011395D01*
X003690Y011406D01*
X003461Y011406D01*
X003461Y010980D01*
X003365Y010980D01*
X003365Y011406D01*
X003136Y011406D01*
X003095Y011395D01*
X003059Y011374D01*
X003029Y011345D01*
X003008Y011308D01*
X002997Y011267D01*
X002997Y010979D01*
X003364Y010979D01*
X003364Y010883D01*
X002997Y010883D01*
X002997Y010595D01*
X003008Y010555D01*
X003029Y010518D01*
X003059Y010488D01*
X003095Y010467D01*
X003136Y010456D01*
X003365Y010456D01*
X003365Y010883D01*
X003461Y010883D01*
X003461Y010456D01*
X003690Y010456D01*
X003730Y010467D01*
X003745Y010476D01*
X003808Y010413D01*
X003880Y010383D01*
X003880Y010269D01*
X003770Y010269D01*
X003682Y010232D01*
X003615Y010165D01*
X003578Y010077D01*
X003578Y009036D01*
X003615Y008948D01*
X003682Y008881D01*
X003770Y008844D01*
X004811Y008844D01*
X004899Y008881D01*
X004944Y008926D01*
X004973Y008855D01*
X005041Y008788D01*
X005112Y008758D01*
X005112Y008644D01*
X004895Y008644D01*
X004807Y008607D01*
X004740Y008540D01*
X004703Y008452D01*
X004703Y007411D01*
X004740Y007323D01*
X004742Y007321D01*
X004658Y007236D01*
X004252Y007236D01*
X004181Y007207D01*
X004111Y007236D01*
X003504Y007236D01*
X003416Y007200D01*
X003348Y007132D01*
X003311Y007044D01*
X003311Y007001D01*
X002780Y007001D01*
X002693Y007088D01*
X002657Y007103D01*
X002700Y007146D01*
X002736Y007234D01*
X002736Y007841D01*
X002700Y007930D01*
X002637Y007993D01*
X002645Y008007D01*
X002656Y008048D01*
X002656Y008277D01*
X002230Y008277D01*
X002230Y008373D01*
X002656Y008373D01*
X002656Y008602D01*
X002645Y008643D01*
X002624Y008679D01*
X002595Y008709D01*
X002558Y008730D01*
X002517Y008741D01*
X002229Y008741D01*
X002229Y008373D01*
X002133Y008373D01*
X002133Y008277D01*
X001706Y008277D01*
X001706Y008048D01*
X001717Y008007D01*
X001726Y007993D01*
X001663Y007930D01*
X001626Y007841D01*
X001626Y007234D01*
X001663Y007146D01*
X001706Y007103D01*
X001669Y007088D01*
X001534Y006953D01*
X001461Y006777D01*
X001461Y006586D01*
X001534Y006409D01*
X001669Y006274D01*
X001846Y006201D01*
X002517Y006201D01*
X002693Y006274D01*
X002780Y006361D01*
X003311Y006361D01*
X003311Y006319D01*
X003348Y006230D01*
X003416Y006163D01*
X003504Y006126D01*
X004111Y006126D01*
X004181Y006156D01*
X004252Y006126D01*
X004658Y006126D01*
X004861Y005923D01*
X004861Y005314D01*
X004709Y005161D01*
X004590Y005161D01*
X004661Y005233D01*
X004661Y005630D01*
X004380Y005911D01*
X003983Y005911D01*
X003701Y005630D01*
X003701Y005233D01*
X003773Y005161D01*
X003483Y005161D01*
X003323Y005001D01*
X002780Y005001D01*
X002693Y005088D01*
X002517Y005161D01*
X001846Y005161D01*
X001669Y005088D01*
X001534Y004953D01*
X001461Y004777D01*
X001461Y004586D01*
X001534Y004409D01*
X001669Y004274D01*
X001846Y004201D01*
X002517Y004201D01*
X002693Y004274D01*
X002780Y004361D01*
X003323Y004361D01*
X003361Y004323D01*
X003361Y003980D01*
X003306Y003957D01*
X003236Y003986D01*
X002629Y003986D01*
X002541Y003950D01*
X002473Y003882D01*
X002436Y003794D01*
X002436Y003069D01*
X002473Y002980D01*
X002522Y002931D01*
X002473Y002882D01*
X002436Y002794D01*
X002436Y002069D01*
X002473Y001980D01*
X002541Y001913D01*
X002436Y002084D02*
X001469Y002084D01*
X001461Y002242D02*
X002436Y002242D01*
X002436Y002401D02*
X001461Y002401D01*
X001461Y002560D02*
X002436Y002560D01*
X002436Y002718D02*
X001461Y002718D01*
X001461Y002877D02*
X002471Y002877D01*
X002450Y003035D02*
X001461Y003035D01*
X001461Y003194D02*
X002436Y003194D01*
X002436Y003352D02*
X001461Y003352D01*
X001461Y003511D02*
X002436Y003511D01*
X002436Y003669D02*
X001461Y003669D01*
X001461Y003828D02*
X002451Y003828D01*
X002722Y004304D02*
X003361Y004304D01*
X003361Y004145D02*
X001461Y004145D01*
X001461Y004304D02*
X001640Y004304D01*
X001513Y004462D02*
X001461Y004462D01*
X001461Y004621D02*
X001461Y004621D01*
X001461Y004779D02*
X001462Y004779D01*
X001461Y004938D02*
X001528Y004938D01*
X001461Y005096D02*
X001689Y005096D01*
X001461Y005255D02*
X003701Y005255D01*
X003701Y005413D02*
X001461Y005413D01*
X001461Y005572D02*
X003701Y005572D01*
X003802Y005730D02*
X001461Y005730D01*
X001461Y005889D02*
X003960Y005889D01*
X004403Y005889D02*
X004861Y005889D01*
X004737Y006048D02*
X001461Y006048D01*
X001461Y006206D02*
X001835Y006206D01*
X001579Y006365D02*
X001461Y006365D01*
X001461Y006523D02*
X001487Y006523D01*
X001461Y006682D02*
X001461Y006682D01*
X001461Y006840D02*
X001488Y006840D01*
X001461Y006999D02*
X001580Y006999D01*
X001658Y007157D02*
X001461Y007157D01*
X001461Y007316D02*
X001626Y007316D01*
X001626Y007474D02*
X001461Y007474D01*
X001461Y007633D02*
X001626Y007633D01*
X001626Y007791D02*
X001461Y007791D01*
X001461Y007950D02*
X001684Y007950D01*
X001706Y008109D02*
X001461Y008109D01*
X001461Y008267D02*
X001706Y008267D01*
X001706Y008373D02*
X002133Y008373D01*
X002133Y008741D01*
X001845Y008741D01*
X001805Y008730D01*
X001768Y008709D01*
X001738Y008679D01*
X001717Y008643D01*
X001706Y008602D01*
X001706Y008373D01*
X001706Y008426D02*
X001461Y008426D01*
X001461Y008584D02*
X001706Y008584D01*
X001461Y008743D02*
X005112Y008743D01*
X004954Y008901D02*
X004920Y008901D01*
X004784Y008584D02*
X002656Y008584D01*
X002656Y008426D02*
X002815Y008426D01*
X002815Y008425D02*
X002815Y008011D01*
X003367Y008011D01*
X003367Y007851D01*
X003527Y007851D01*
X003527Y007299D01*
X003941Y007299D01*
X003981Y007310D01*
X004018Y007331D01*
X004048Y007361D01*
X004069Y007397D01*
X004080Y007438D01*
X004080Y007851D01*
X003527Y007851D01*
X003527Y008011D01*
X004080Y008011D01*
X004080Y008425D01*
X004069Y008466D01*
X004048Y008502D01*
X004018Y008532D01*
X003981Y008553D01*
X003941Y008564D01*
X003527Y008564D01*
X003527Y008012D01*
X003367Y008012D01*
X003367Y008564D01*
X002954Y008564D01*
X002913Y008553D01*
X002876Y008532D01*
X002847Y008502D01*
X002826Y008466D01*
X002815Y008425D01*
X002815Y008267D02*
X002656Y008267D01*
X002656Y008109D02*
X002815Y008109D01*
X002679Y007950D02*
X003367Y007950D01*
X003367Y007851D02*
X002815Y007851D01*
X002815Y007438D01*
X002826Y007397D01*
X002847Y007361D01*
X002876Y007331D01*
X002913Y007310D01*
X002954Y007299D01*
X003367Y007299D01*
X003367Y007851D01*
X003367Y007791D02*
X003527Y007791D01*
X003527Y007633D02*
X003367Y007633D01*
X003367Y007474D02*
X003527Y007474D01*
X003527Y007316D02*
X003367Y007316D01*
X003373Y007157D02*
X002705Y007157D01*
X002736Y007316D02*
X002903Y007316D01*
X002815Y007474D02*
X002736Y007474D01*
X002736Y007633D02*
X002815Y007633D01*
X002815Y007791D02*
X002736Y007791D01*
X002181Y007538D02*
X002181Y006681D01*
X003807Y006681D01*
X003372Y006206D02*
X002528Y006206D01*
X002674Y005096D02*
X003418Y005096D01*
X003681Y004681D02*
X003681Y003432D01*
X003680Y003431D01*
X004176Y003352D02*
X005811Y003352D01*
X005811Y003511D02*
X004176Y003511D01*
X004176Y003669D02*
X005811Y003669D01*
X005826Y003828D02*
X004162Y003828D01*
X004001Y003986D02*
X005986Y003986D01*
X006067Y004145D02*
X004001Y004145D01*
X004001Y004304D02*
X004380Y004304D01*
X004222Y004462D02*
X004141Y004462D01*
X004161Y004621D02*
X004201Y004621D01*
X004201Y004779D02*
X004161Y004779D01*
X004104Y004938D02*
X004259Y004938D01*
X004681Y004681D02*
X005181Y005181D01*
X005181Y006055D01*
X004555Y006681D01*
X005416Y007542D01*
X005416Y007931D01*
X005432Y007948D01*
X005432Y009306D01*
X006180Y009306D02*
X006180Y010308D01*
X006057Y010431D01*
X005431Y010431D01*
X004931Y010931D01*
X004200Y010931D01*
X004200Y009647D01*
X004291Y009556D01*
X003578Y009535D02*
X002402Y009535D01*
X002402Y009476D02*
X002402Y009636D01*
X002955Y009636D01*
X002955Y010050D01*
X002944Y010091D01*
X002923Y010127D01*
X002893Y010157D01*
X002856Y010178D01*
X002816Y010189D01*
X002402Y010189D01*
X002402Y009637D01*
X002242Y009637D01*
X002242Y010189D01*
X001829Y010189D01*
X001788Y010178D01*
X001751Y010157D01*
X001722Y010127D01*
X001701Y010091D01*
X001690Y010050D01*
X001690Y009636D01*
X002242Y009636D01*
X002242Y009476D01*
X002402Y009476D01*
X002402Y008924D01*
X002816Y008924D01*
X002856Y008935D01*
X002893Y008956D01*
X002923Y008986D01*
X002944Y009022D01*
X002955Y009063D01*
X002955Y009476D01*
X002402Y009476D01*
X002402Y009377D02*
X002242Y009377D01*
X002242Y009476D02*
X002242Y008924D01*
X001829Y008924D01*
X001788Y008935D01*
X001751Y008956D01*
X001722Y008986D01*
X001701Y009022D01*
X001690Y009063D01*
X001690Y009476D01*
X002242Y009476D01*
X002242Y009535D02*
X001461Y009535D01*
X001461Y009377D02*
X001690Y009377D01*
X001690Y009218D02*
X001461Y009218D01*
X001461Y009060D02*
X001691Y009060D01*
X001461Y008901D02*
X003661Y008901D01*
X003578Y009060D02*
X002954Y009060D01*
X002955Y009218D02*
X003578Y009218D01*
X003578Y009377D02*
X002955Y009377D01*
X002955Y009694D02*
X003578Y009694D01*
X003578Y009853D02*
X002955Y009853D01*
X002955Y010011D02*
X003578Y010011D01*
X003620Y010170D02*
X002871Y010170D01*
X003061Y010487D02*
X001461Y010487D01*
X001461Y010645D02*
X002997Y010645D01*
X002997Y010804D02*
X001461Y010804D01*
X001461Y010962D02*
X003364Y010962D01*
X003365Y011121D02*
X003461Y011121D01*
X003461Y011279D02*
X003365Y011279D01*
X003000Y011279D02*
X001485Y011279D01*
X001462Y011121D02*
X002997Y011121D01*
X003365Y010804D02*
X003461Y010804D01*
X003461Y010645D02*
X003365Y010645D01*
X003365Y010487D02*
X003461Y010487D01*
X003880Y010328D02*
X001461Y010328D01*
X001461Y010170D02*
X001774Y010170D01*
X001690Y010011D02*
X001461Y010011D01*
X001461Y009853D02*
X001690Y009853D01*
X001690Y009694D02*
X001461Y009694D01*
X002242Y009694D02*
X002402Y009694D01*
X002402Y009853D02*
X002242Y009853D01*
X002242Y010011D02*
X002402Y010011D01*
X002402Y010170D02*
X002242Y010170D01*
X002242Y009218D02*
X002402Y009218D01*
X002402Y009060D02*
X002242Y009060D01*
X002229Y008584D02*
X002133Y008584D01*
X002133Y008426D02*
X002229Y008426D01*
X003367Y008426D02*
X003527Y008426D01*
X003527Y008267D02*
X003367Y008267D01*
X003367Y008109D02*
X003527Y008109D01*
X003527Y007950D02*
X004703Y007950D01*
X004703Y007791D02*
X004080Y007791D01*
X004080Y007633D02*
X004703Y007633D01*
X004703Y007474D02*
X004080Y007474D01*
X003992Y007316D02*
X004737Y007316D01*
X005167Y006840D02*
X006073Y006840D01*
X006073Y006682D02*
X005051Y006682D01*
X005166Y006523D02*
X006073Y006523D01*
X006073Y006365D02*
X005325Y006365D01*
X005465Y006206D02*
X006081Y006206D01*
X006228Y006048D02*
X005501Y006048D01*
X005501Y005889D02*
X006339Y005889D01*
X006524Y005889D02*
X006973Y005889D01*
X007019Y005730D02*
X006780Y005730D01*
X006869Y005572D02*
X007143Y005572D01*
X006889Y005413D02*
X008449Y005413D01*
X008621Y005255D02*
X007725Y005255D01*
X007931Y005096D02*
X007932Y005096D01*
X007931Y004938D02*
X007932Y004938D01*
X007931Y004779D02*
X007932Y004779D01*
X008209Y004779D02*
X008331Y004779D01*
X008331Y004621D02*
X008209Y004621D01*
X008209Y004462D02*
X008331Y004462D01*
X008331Y004304D02*
X008209Y004304D01*
X008241Y004145D02*
X008266Y004145D01*
X007931Y003806D02*
X008806Y003807D01*
X008444Y003311D02*
X008355Y003348D01*
X008288Y003416D01*
X008259Y003486D01*
X008191Y003418D01*
X008023Y003348D01*
X007840Y003348D01*
X007672Y003418D01*
X007551Y003539D01*
X007551Y003069D01*
X007515Y002980D01*
X007476Y002941D01*
X007534Y002882D01*
X007566Y002806D01*
X007598Y002882D01*
X007666Y002950D01*
X007754Y002986D01*
X008361Y002986D01*
X008431Y002957D01*
X008502Y002986D01*
X009109Y002986D01*
X009197Y002950D01*
X009245Y002902D01*
X009633Y002902D01*
X009633Y002998D01*
X009206Y002998D01*
X009206Y003227D01*
X009217Y003268D01*
X009238Y003304D01*
X009268Y003334D01*
X009305Y003355D01*
X009345Y003366D01*
X009633Y003366D01*
X009633Y002998D01*
X009729Y002998D01*
X009729Y003366D01*
X010017Y003366D01*
X010058Y003355D01*
X010095Y003334D01*
X010124Y003304D01*
X010126Y003301D01*
X010126Y003437D01*
X010124Y003434D01*
X010095Y003404D01*
X010058Y003383D01*
X010017Y003372D01*
X009729Y003372D01*
X009729Y003739D01*
X009633Y003739D01*
X009633Y003372D01*
X009345Y003372D01*
X009305Y003383D01*
X009297Y003387D01*
X009257Y003348D01*
X009169Y003311D01*
X008444Y003311D01*
X008351Y003352D02*
X008032Y003352D01*
X007831Y003352D02*
X007551Y003352D01*
X007551Y003511D02*
X007579Y003511D01*
X007931Y003806D02*
X007431Y004306D01*
X007431Y004658D01*
X006931Y004658D02*
X006931Y004056D01*
X007056Y003931D01*
X007056Y003432D01*
X007055Y003431D01*
X007075Y003412D01*
X007075Y002431D01*
X008057Y002431D01*
X007596Y002877D02*
X007537Y002877D01*
X007537Y003035D02*
X009206Y003035D01*
X009206Y003194D02*
X007551Y003194D01*
X006307Y003431D02*
X006288Y003412D01*
X006288Y002431D01*
X005792Y002401D02*
X005550Y002401D01*
X005582Y002323D02*
X005473Y002585D01*
X005273Y002786D01*
X005011Y002894D01*
X004727Y002894D01*
X004465Y002786D01*
X004264Y002585D01*
X004156Y002323D01*
X004156Y002040D01*
X004264Y001777D01*
X004465Y001577D01*
X004727Y001468D01*
X005011Y001468D01*
X005273Y001577D01*
X005473Y001777D01*
X005582Y002040D01*
X005582Y002323D01*
X005582Y002242D02*
X005792Y002242D01*
X005792Y002084D02*
X005582Y002084D01*
X005535Y001925D02*
X005883Y001925D01*
X005463Y001767D02*
X009167Y001767D01*
X009075Y002163D02*
X008931Y002306D01*
X008930Y002306D01*
X008805Y002431D01*
X009075Y002163D02*
X009681Y002163D01*
X010236Y002084D02*
X011599Y002084D01*
X011606Y002043D02*
X011635Y001955D01*
X011677Y001872D01*
X011731Y001797D01*
X011797Y001731D01*
X011872Y001677D01*
X011955Y001635D01*
X012043Y001606D01*
X012135Y001591D01*
X012173Y001591D01*
X012173Y002173D01*
X011591Y002173D01*
X011591Y002135D01*
X011606Y002043D01*
X011650Y001925D02*
X010236Y001925D01*
X010196Y001767D02*
X011762Y001767D01*
X012036Y001608D02*
X005304Y001608D01*
X004434Y001608D02*
X001760Y001608D01*
X001604Y001767D02*
X004275Y001767D01*
X004203Y001925D02*
X003337Y001925D01*
X003632Y002084D02*
X003728Y002084D01*
X003728Y002242D02*
X003632Y002242D01*
X003729Y002401D02*
X004188Y002401D01*
X004156Y002242D02*
X004096Y002242D01*
X004093Y002084D02*
X004156Y002084D01*
X004096Y002560D02*
X004254Y002560D01*
X004397Y002718D02*
X004096Y002718D01*
X004031Y002877D02*
X004684Y002877D01*
X005054Y002877D02*
X005826Y002877D01*
X005825Y003035D02*
X004162Y003035D01*
X004176Y003194D02*
X005811Y003194D01*
X005792Y002718D02*
X005341Y002718D01*
X005484Y002560D02*
X005792Y002560D01*
X006307Y003431D02*
X006306Y003432D01*
X006306Y003931D01*
X006431Y004056D01*
X006431Y004658D01*
X006431Y005431D01*
X006009Y005255D02*
X005501Y005255D01*
X005501Y005413D02*
X005973Y005413D01*
X005994Y005572D02*
X005501Y005572D01*
X005501Y005730D02*
X006083Y005730D01*
X006073Y005096D02*
X005492Y005096D01*
X005390Y004938D02*
X006073Y004938D01*
X006073Y004779D02*
X005232Y004779D01*
X005161Y004621D02*
X006073Y004621D01*
X006073Y004462D02*
X005141Y004462D01*
X004982Y004304D02*
X006073Y004304D01*
X005363Y004910D02*
X005363Y004910D01*
X004802Y005255D02*
X004661Y005255D01*
X004661Y005413D02*
X004861Y005413D01*
X004861Y005572D02*
X004661Y005572D01*
X004561Y005730D02*
X004861Y005730D01*
X003681Y004681D02*
X002181Y004681D01*
X001461Y003986D02*
X003361Y003986D01*
X002932Y003431D02*
X002932Y002431D01*
X006635Y006048D02*
X006728Y006048D01*
X006931Y006705D02*
X006931Y007306D01*
X007056Y007431D01*
X007056Y007788D01*
X007038Y007806D01*
X007057Y007826D01*
X007057Y008806D01*
X007057Y009432D01*
X007306Y009681D01*
X008931Y009681D01*
X010681Y007931D01*
X010681Y004200D01*
X010700Y004181D01*
X012181Y004181D01*
X012690Y004621D02*
X013901Y004621D01*
X013901Y004779D02*
X012614Y004779D01*
X012719Y004938D02*
X013901Y004938D01*
X013901Y005096D02*
X012765Y005096D01*
X012767Y005255D02*
X013901Y005255D01*
X013901Y005413D02*
X012725Y005413D01*
X012625Y005572D02*
X013901Y005572D01*
X013901Y005730D02*
X012678Y005730D01*
X012785Y005889D02*
X013901Y005889D01*
X013901Y006048D02*
X012851Y006048D01*
X012851Y006206D02*
X013901Y006206D01*
X013901Y006365D02*
X012831Y006365D01*
X012765Y006523D02*
X013901Y006523D01*
X013901Y006682D02*
X012629Y006682D01*
X012501Y006840D02*
X013901Y006840D01*
X013901Y006999D02*
X012501Y006999D01*
X012501Y007157D02*
X013901Y007157D01*
X013901Y007316D02*
X012501Y007316D01*
X012501Y007474D02*
X012844Y007474D01*
X012749Y007633D02*
X012501Y007633D01*
X012831Y008109D02*
X012860Y008109D01*
X012831Y008267D02*
X013901Y008267D01*
X013901Y008109D02*
X013503Y008109D01*
X013607Y007950D02*
X013901Y007950D01*
X013901Y007791D02*
X013639Y007791D01*
X013614Y007633D02*
X013901Y007633D01*
X013901Y007474D02*
X013519Y007474D01*
X013901Y008426D02*
X012831Y008426D01*
X012779Y008584D02*
X013901Y008584D01*
X013901Y008743D02*
X012728Y008743D01*
X012831Y008901D02*
X013901Y008901D01*
X013901Y009060D02*
X012831Y009060D01*
X012831Y009218D02*
X013901Y009218D01*
X013901Y009377D02*
X012831Y009377D01*
X012802Y009535D02*
X013901Y009535D01*
X013901Y009694D02*
X012650Y009694D01*
X012819Y009853D02*
X013901Y009853D01*
X013901Y010011D02*
X012831Y010011D01*
X012831Y010170D02*
X012975Y010170D01*
X013388Y010170D02*
X013901Y010170D01*
X013901Y010328D02*
X013572Y010328D01*
X013638Y010487D02*
X013901Y010487D01*
X013901Y010645D02*
X013639Y010645D01*
X013583Y010804D02*
X013901Y010804D01*
X013901Y010962D02*
X013445Y010962D01*
X013901Y011121D02*
X005194Y011121D01*
X005353Y010962D02*
X005696Y010962D01*
X005566Y010804D02*
X005512Y010804D01*
X004696Y011279D02*
X013894Y011279D01*
X013846Y011438D02*
X004604Y011438D01*
X003796Y011438D02*
X001528Y011438D01*
X001630Y011597D02*
X013759Y011597D01*
X013602Y011755D02*
X001798Y011755D01*
X004079Y008426D02*
X004703Y008426D01*
X004703Y008267D02*
X004080Y008267D01*
X004080Y008109D02*
X004703Y008109D01*
X005484Y007157D02*
X006073Y007157D01*
X006073Y006999D02*
X005325Y006999D01*
X006084Y007316D02*
X006111Y007316D01*
X006431Y006705D02*
X006431Y008431D01*
X006181Y008681D01*
X006181Y009305D01*
X006180Y009306D01*
X007277Y010011D02*
X010899Y010011D01*
X011181Y010181D02*
X012083Y010181D01*
X012099Y010166D01*
X011548Y009694D02*
X009371Y009694D01*
X009213Y009853D02*
X011379Y009853D01*
X011396Y009535D02*
X009530Y009535D01*
X009688Y009377D02*
X011367Y009377D01*
X011367Y009218D02*
X009847Y009218D01*
X010006Y009060D02*
X011367Y009060D01*
X011367Y008901D02*
X010164Y008901D01*
X010323Y008743D02*
X011470Y008743D01*
X011418Y008584D02*
X010481Y008584D01*
X010640Y008426D02*
X011367Y008426D01*
X011367Y008267D02*
X010798Y008267D01*
X010954Y008109D02*
X011367Y008109D01*
X011367Y007950D02*
X011001Y007950D01*
X011001Y007791D02*
X011437Y007791D01*
X011861Y007633D02*
X011001Y007633D01*
X011001Y007474D02*
X011861Y007474D01*
X011861Y007316D02*
X011001Y007316D01*
X011001Y007157D02*
X011861Y007157D01*
X011861Y006999D02*
X011001Y006999D01*
X011001Y006840D02*
X011861Y006840D01*
X011734Y006682D02*
X011001Y006682D01*
X011001Y006523D02*
X011598Y006523D01*
X011532Y006365D02*
X011001Y006365D01*
X011001Y006206D02*
X011511Y006206D01*
X011512Y006048D02*
X011001Y006048D01*
X011001Y005889D02*
X011577Y005889D01*
X011685Y005730D02*
X011001Y005730D01*
X011001Y005572D02*
X011738Y005572D01*
X011637Y005413D02*
X011001Y005413D01*
X011001Y005255D02*
X011596Y005255D01*
X011598Y005096D02*
X011001Y005096D01*
X011001Y004938D02*
X011643Y004938D01*
X011749Y004779D02*
X011001Y004779D01*
X011171Y004621D02*
X011673Y004621D01*
X012641Y003669D02*
X013901Y003669D01*
X013901Y003511D02*
X012770Y003511D01*
X012836Y003352D02*
X013901Y003352D01*
X013901Y003194D02*
X012851Y003194D01*
X012846Y003035D02*
X013901Y003035D01*
X013901Y002877D02*
X012780Y002877D01*
X012666Y002718D02*
X013901Y002718D01*
X013901Y002560D02*
X012636Y002560D01*
X012730Y002401D02*
X013901Y002401D01*
X013901Y002242D02*
X012769Y002242D01*
X012771Y002173D02*
X012190Y002173D01*
X012190Y001591D01*
X012228Y001591D01*
X012320Y001606D01*
X012408Y001635D01*
X012491Y001677D01*
X012566Y001731D01*
X012631Y001797D01*
X012686Y001872D01*
X012728Y001955D01*
X012757Y002043D01*
X012771Y002135D01*
X012771Y002173D01*
X012763Y002084D02*
X013894Y002084D01*
X013846Y001925D02*
X012713Y001925D01*
X012601Y001767D02*
X013759Y001767D01*
X013602Y001608D02*
X012327Y001608D01*
X012190Y001608D02*
X012173Y001608D01*
X012173Y001767D02*
X012190Y001767D01*
X012173Y001925D02*
X012190Y001925D01*
X012173Y002084D02*
X012190Y002084D01*
X011594Y002242D02*
X010236Y002242D01*
X010236Y002401D02*
X011632Y002401D01*
X011727Y002560D02*
X010195Y002560D01*
X010156Y002718D02*
X011697Y002718D01*
X012181Y003181D02*
X011056Y003181D01*
X010806Y003431D01*
X010700Y003431D01*
X010681Y003413D01*
X010156Y003035D02*
X010157Y003035D01*
X010156Y002877D02*
X010956Y002877D01*
X010126Y003352D02*
X010063Y003352D01*
X009729Y003352D02*
X009633Y003352D01*
X009633Y003511D02*
X009729Y003511D01*
X009729Y003669D02*
X009633Y003669D01*
X009300Y003352D02*
X009262Y003352D01*
X009633Y003194D02*
X009729Y003194D01*
X009729Y003035D02*
X009633Y003035D01*
X009681Y004575D02*
X009680Y005806D01*
X009361Y005255D02*
X009244Y005255D01*
X009361Y005096D02*
X008209Y005096D01*
X008209Y004938D02*
X008392Y004938D01*
X008758Y004938D02*
X008854Y004938D01*
X008854Y004779D02*
X008758Y004779D01*
X008758Y004621D02*
X008854Y004621D01*
X007963Y005572D02*
X007720Y005572D01*
X007431Y005931D02*
X007431Y006705D01*
X007931Y006705D02*
X007931Y006056D01*
X008181Y005806D01*
X008932Y005806D01*
X007931Y006705D02*
X007931Y007306D01*
X007806Y007431D01*
X007806Y007788D01*
X007825Y007806D01*
X007805Y007826D01*
X007805Y008806D01*
X006805Y010431D02*
X010931Y010431D01*
X011181Y010181D01*
X011170Y010645D02*
X012724Y010645D01*
X012780Y010804D02*
X007297Y010804D01*
X007167Y010962D02*
X012918Y010962D01*
X012099Y009181D02*
X012181Y009099D01*
X012181Y008181D01*
X012166Y008197D01*
X012099Y008197D01*
X012181Y008181D02*
X012181Y006181D01*
X012790Y004462D02*
X013901Y004462D01*
X013901Y004304D02*
X012851Y004304D01*
X012851Y004145D02*
X013901Y004145D01*
X013901Y003986D02*
X012826Y003986D01*
X012760Y003828D02*
X013901Y003828D01*
X007653Y001925D02*
X007479Y001925D01*
X006444Y010962D02*
X006419Y010962D01*
D20*
X007431Y005931D03*
X006431Y005431D03*
X007931Y003806D03*
M02*
