G75*
G70*
%OFA0B0*%
%FSLAX24Y24*%
%IPPOS*%
%LPD*%
%AMOC8*
5,1,8,0,0,1.08239X$1,22.5*
%
%ADD10R,0.0512X0.0630*%
%ADD11R,0.0630X0.0512*%
%ADD12R,0.0945X0.0945*%
%ADD13R,0.0236X0.0866*%
%ADD14R,0.0984X0.0472*%
D10*
X002932Y002431D03*
X003680Y002431D03*
X003680Y003431D03*
X002932Y003431D03*
X006288Y002431D03*
X007075Y002431D03*
X008057Y002431D03*
X008805Y002431D03*
X007055Y003431D03*
X006307Y003431D03*
X008932Y005806D03*
X009680Y005806D03*
X007825Y007806D03*
X007038Y007806D03*
X007057Y008806D03*
X007805Y008806D03*
X006180Y009306D03*
X005432Y009306D03*
X006057Y010431D03*
X006805Y010431D03*
X004200Y010931D03*
X003413Y010931D03*
X003807Y006681D03*
X004555Y006681D03*
D11*
X002181Y007538D03*
X002181Y008325D03*
X008806Y004555D03*
X009681Y004575D03*
X009681Y003788D03*
X008806Y003807D03*
X009681Y002950D03*
X009681Y002163D03*
X010681Y003413D03*
X010681Y004200D03*
D12*
X005416Y007931D03*
X004291Y009556D03*
X003447Y007931D03*
X002322Y009556D03*
D13*
X006431Y006705D03*
X006931Y006705D03*
X007431Y006705D03*
X007931Y006705D03*
X007931Y004658D03*
X007431Y004658D03*
X006931Y004658D03*
X006431Y004658D03*
D14*
X012099Y008197D03*
X012099Y009181D03*
X012099Y010166D03*
M02*
